<svg width="65" height="65" viewBox="0 0 65 65" fill="none" xmlns="http://www.w3.org/2000/svg">
<path d="M2.84106 34.136H22.8091V65H2.84106V34.136Z" fill="#D93E00"/>
<path d="M52 39C59.1797 39 65 44.8203 65 52C65 59.1797 59.1797 65 52 65C44.8203 65 39 59.1797 39 52C39 44.8203 44.8203 39 52 39ZM52 48C49.7909 48 48 49.7909 48 52C48 54.2091 49.7909 56 52 56C54.2091 56 56 54.2091 56 52C56 49.7909 54.2091 48 52 48Z" fill="#D93E00"/>
<path d="M13 0C20.1797 0 26 5.8203 26 13C26 20.1797 20.1797 26 13 26C5.8203 26 0 20.1797 0 13C0 5.8203 5.8203 0 13 0ZM13 9C10.7909 9 9 10.7909 9 13C9 15.2091 10.7909 17 13 17C15.2091 17 17 15.2091 17 13C17 10.7909 15.2091 9 13 9Z" fill="#D93E00"/>
<path d="M56.5 8.5V44.5H47.5V17.5H19V8.5H56.5Z" fill="#D93E00"/>
</svg>
