<svg width="65" height="103" viewBox="0 0 65 103" fill="none" xmlns="http://www.w3.org/2000/svg">
<path d="M2.84106 34.136H22.8091V103H2.84106V34.136Z" fill="#D93E00"/>
<path d="M52 77C59.1797 77 65 82.8203 65 90C65 97.1797 59.1797 103 52 103C44.8203 103 39 97.1797 39 90C39 82.8203 44.8203 77 52 77ZM52 86C49.7909 86 48 87.7909 48 90C48 92.2091 49.7909 94 52 94C54.2091 94 56 92.2091 56 90C56 87.7909 54.2091 86 52 86Z" fill="#D93E00"/>
<path d="M13 0C20.1797 0 26 5.8203 26 13C26 20.1797 20.1797 26 13 26C5.8203 26 0 20.1797 0 13C0 5.8203 5.8203 0 13 0ZM13 9C10.7909 9 9 10.7909 9 13C9 15.2091 10.7909 17 13 17C15.2091 17 17 15.2091 17 13C17 10.7909 15.2091 9 13 9Z" fill="#D93E00"/>
<path d="M56.5 8.5V80.5H47.5V17.5H19V8.5H56.5Z" fill="#D93E00"/>
</svg>
