<svg width="563" height="129" viewBox="0 0 563 129" fill="none" xmlns="http://www.w3.org/2000/svg">
<path d="M19.456 35.672H37.12V51.032H19.968V103H0V32.6C0 24.7493 2.304 18.52 6.912 13.912C11.6053 9.304 18.176 7 26.624 7C29.6107 7 32.4267 7.34133 35.072 8.024C37.8027 8.62134 40.064 9.51734 41.856 10.712L36.608 25.176C34.304 23.5547 31.616 22.744 28.544 22.744C22.4853 22.744 19.456 26.072 19.456 32.728V35.672Z" fill="#D93E00"/>
<path d="M116.138 34.136V103H97.066V95.064C92.1167 101.037 84.9487 104.024 75.562 104.024C69.0767 104.024 63.1887 102.573 57.898 99.672C52.6927 96.7707 48.5967 92.632 45.61 87.256C42.6233 81.88 41.13 75.6507 41.13 68.568C41.13 61.4853 42.6233 55.256 45.61 49.88C48.5967 44.504 52.6927 40.3653 57.898 37.464C63.1887 34.5627 69.0767 33.112 75.562 33.112C84.3513 33.112 91.2207 35.8853 96.17 41.432V34.136H116.138ZM79.018 87.64C84.0527 87.64 88.234 85.9333 91.562 82.52C94.89 79.0213 96.554 74.3707 96.554 68.568C96.554 62.7653 94.89 58.1573 91.562 54.744C88.234 51.2453 84.0527 49.496 79.018 49.496C73.898 49.496 69.674 51.2453 66.346 54.744C63.018 58.1573 61.354 62.7653 61.354 68.568C61.354 74.3707 63.018 79.0213 66.346 82.52C69.674 85.9333 73.898 87.64 79.018 87.64Z" fill="#D93E00"/>
<path d="M175.329 33.112C181.729 33.112 187.532 34.6053 192.737 37.592C198.028 40.4933 202.166 44.632 205.153 50.008C208.14 55.2987 209.633 61.4853 209.633 68.568C209.633 75.6507 208.14 81.88 205.153 87.256C202.166 92.5467 198.028 96.6853 192.737 99.672C187.532 102.573 181.729 104.024 175.329 104.024C165.857 104.024 158.646 101.037 153.697 95.064V103H134.625V8.024H154.593V41.432C159.628 35.8853 166.54 33.112 175.329 33.112ZM171.873 87.64C176.993 87.64 181.174 85.9333 184.417 82.52C187.745 79.0213 189.409 74.3707 189.409 68.568C189.409 62.7653 187.745 58.1573 184.417 54.744C181.174 51.2453 176.993 49.496 171.873 49.496C166.753 49.496 162.529 51.2453 159.201 54.744C155.958 58.1573 154.337 62.7653 154.337 68.568C154.337 74.3707 155.958 79.0213 159.201 82.52C162.529 85.9333 166.753 87.64 171.873 87.64Z" fill="#D93E00"/>
<path d="M242.072 43.224C244.461 39.896 247.661 37.3787 251.672 35.672C255.768 33.9653 260.461 33.112 265.752 33.112V51.544C263.533 51.3733 262.04 51.288 261.272 51.288C255.555 51.288 251.075 52.9093 247.832 56.152C244.589 59.3093 242.968 64.088 242.968 70.488V103H223V34.136H242.072V43.224Z" fill="#D93E00"/>
<path d="M277.625 34.136H297.593V103H277.625V34.136Z" fill="#D93E00"/>
<path d="M393.847 99.672C391.884 101.123 389.452 102.232 386.551 103C383.735 103.683 380.791 104.024 377.719 104.024C369.442 104.024 363.084 101.933 358.647 97.752C354.21 93.5707 351.991 87.4267 351.991 79.32V18.904H371.959V35.672H388.983V51.032H371.959V79.064C371.959 81.9653 372.684 84.2267 374.135 85.848C375.586 87.384 377.676 88.152 380.407 88.152C383.479 88.152 386.21 87.2987 388.599 85.592L393.847 99.672Z" fill="#D93E00"/>
<path d="M472.888 34.136V103H453.816V95.064C448.867 101.037 441.699 104.024 432.312 104.024C425.827 104.024 419.939 102.573 414.648 99.672C409.443 96.7707 405.347 92.632 402.36 87.256C399.373 81.88 397.88 75.6507 397.88 68.568C397.88 61.4853 399.373 55.256 402.36 49.88C405.347 44.504 409.443 40.3653 414.648 37.464C419.939 34.5627 425.827 33.112 432.312 33.112C441.101 33.112 447.971 35.8853 452.92 41.432V34.136H472.888ZM435.768 87.64C440.803 87.64 444.984 85.9333 448.312 82.52C451.64 79.0213 453.304 74.3707 453.304 68.568C453.304 62.7653 451.64 58.1573 448.312 54.744C444.984 51.2453 440.803 49.496 435.768 49.496C430.648 49.496 426.424 51.2453 423.096 54.744C419.768 58.1573 418.104 62.7653 418.104 68.568C418.104 74.3707 419.768 79.0213 423.096 82.52C426.424 85.9333 430.648 87.64 435.768 87.64Z" fill="#D93E00"/>
<path d="M562.415 34.136V91.48C562.415 104.109 559.13 113.496 552.559 119.64C545.988 125.784 536.388 128.856 523.759 128.856C517.103 128.856 510.788 128.045 504.815 126.424C498.842 124.803 493.892 122.456 489.967 119.384L497.903 105.048C500.804 107.437 504.474 109.315 508.911 110.68C513.348 112.131 517.786 112.856 522.223 112.856C529.135 112.856 534.212 111.277 537.455 108.12C540.783 105.048 542.447 100.355 542.447 94.04V91.096C537.242 96.8133 529.988 99.672 520.687 99.672C514.372 99.672 508.57 98.3067 503.279 95.576C498.074 92.76 493.935 88.8347 490.863 83.8C487.791 78.7653 486.255 72.9627 486.255 66.392C486.255 59.8213 487.791 54.0187 490.863 48.984C493.935 43.9493 498.074 40.0667 503.279 37.336C508.57 34.52 514.372 33.112 520.687 33.112C530.671 33.112 538.266 36.3973 543.471 42.968V34.136H562.415ZM524.655 83.288C529.946 83.288 534.255 81.752 537.583 78.68C540.996 75.5227 542.703 71.4267 542.703 66.392C542.703 61.3573 540.996 57.304 537.583 54.232C534.255 51.0747 529.946 49.496 524.655 49.496C519.364 49.496 515.012 51.0747 511.599 54.232C508.186 57.304 506.479 61.3573 506.479 66.392C506.479 71.4267 508.186 75.5227 511.599 78.68C515.012 81.752 519.364 83.288 524.655 83.288Z" fill="#D93E00"/>
<path d="M326.784 77C333.964 77 339.784 82.8203 339.784 90C339.784 97.1797 333.964 103 326.784 103C319.604 103 313.784 97.1797 313.784 90C313.784 82.8203 319.604 77 326.784 77ZM326.784 86C324.575 86 322.784 87.7909 322.784 90C322.784 92.2091 324.575 94 326.784 94C328.993 94 330.784 92.2091 330.784 90C330.784 87.7909 328.993 86 326.784 86Z" fill="#D93E00"/>
<path d="M287.784 0C294.964 0 300.784 5.8203 300.784 13C300.784 20.1797 294.964 26 287.784 26C280.604 26 274.784 20.1797 274.784 13C274.784 5.8203 280.604 0 287.784 0ZM287.784 9C285.575 9 283.784 10.7909 283.784 13C283.784 15.2091 285.575 17 287.784 17C289.993 17 291.784 15.2091 291.784 13C291.784 10.7909 289.993 9 287.784 9Z" fill="#D93E00"/>
<path d="M331.284 8.5V80.5H322.284V17.5H293.784V8.5H331.284Z" fill="#D93E00"/>
</svg>
