<?xml version="1.0" encoding="UTF-8"?>
<svg id="Camada_1" data-name="Camada 1" xmlns="http://www.w3.org/2000/svg" viewBox="0 0 65 65">
  <defs>
    <style>
      .cls-1 {
        fill: #f9f7f1;
      }
    </style>
  </defs>
  <path class="cls-1" d="M2.84,34.14h19.97v30.86H2.84v-30.86Z"/>
  <path class="cls-1" d="M52,39c7.18,0,13,5.82,13,13s-5.82,13-13,13-13-5.82-13-13,5.82-13,13-13ZM52,48c-2.21,0-4,1.79-4,4s1.79,4,4,4,4-1.79,4-4-1.79-4-4-4Z"/>
  <path class="cls-1" d="M13,0c7.18,0,13,5.82,13,13s-5.82,13-13,13S0,20.18,0,13,5.82,0,13,0ZM13,9c-2.21,0-4,1.79-4,4s1.79,4,4,4,4-1.79,4-4-1.79-4-4-4Z"/>
  <path class="cls-1" d="M56.5,8.5v36h-9v-27h-28.5v-9h37.5Z"/>
</svg>