<?xml version="1.0" encoding="UTF-8"?>
<svg id="Camada_1" data-name="Camada 1" xmlns="http://www.w3.org/2000/svg" viewBox="0 0 562.41 128.86">
  <defs>
    <style>
      .cls-1 {
        fill: #f9f7f1;
      }
    </style>
  </defs>
  <path class="cls-1" d="M19.46,35.67h17.66v15.36h-17.15v51.97H0V32.6c0-7.85,2.3-14.08,6.91-18.69,4.69-4.61,11.26-6.91,19.71-6.91,2.99,0,5.8.34,8.45,1.02,2.73.6,4.99,1.49,6.78,2.69l-5.25,14.46c-2.3-1.62-4.99-2.43-8.06-2.43-6.06,0-9.09,3.33-9.09,9.98v2.94Z"/>
  <path class="cls-1" d="M116.14,34.14v68.86h-19.07v-7.94c-4.95,5.97-12.12,8.96-21.5,8.96-6.49,0-12.37-1.45-17.66-4.35-5.21-2.9-9.3-7.04-12.29-12.42-2.99-5.38-4.48-11.61-4.48-18.69s1.49-13.31,4.48-18.69c2.99-5.38,7.08-9.51,12.29-12.42,5.29-2.9,11.18-4.35,17.66-4.35,8.79,0,15.66,2.77,20.61,8.32v-7.3h19.97ZM79.02,87.64c5.03,0,9.22-1.71,12.54-5.12,3.33-3.5,4.99-8.15,4.99-13.95s-1.66-10.41-4.99-13.82c-3.33-3.5-7.51-5.25-12.54-5.25s-9.34,1.75-12.67,5.25c-3.33,3.41-4.99,8.02-4.99,13.82s1.66,10.45,4.99,13.95c3.33,3.41,7.55,5.12,12.67,5.12Z"/>
  <path class="cls-1" d="M175.33,33.11c6.4,0,12.2,1.49,17.41,4.48,5.29,2.9,9.43,7.04,12.42,12.42,2.99,5.29,4.48,11.48,4.48,18.56s-1.49,13.31-4.48,18.69c-2.99,5.29-7.12,9.43-12.42,12.42-5.21,2.9-11.01,4.35-17.41,4.35-9.47,0-16.68-2.99-21.63-8.96v7.94h-19.07V8.02h19.97v33.41c5.04-5.55,11.95-8.32,20.74-8.32ZM171.87,87.64c5.12,0,9.3-1.71,12.54-5.12,3.33-3.5,4.99-8.15,4.99-13.95s-1.66-10.41-4.99-13.82c-3.24-3.5-7.42-5.25-12.54-5.25s-9.34,1.75-12.67,5.25c-3.24,3.41-4.86,8.02-4.86,13.82s1.62,10.45,4.86,13.95c3.33,3.41,7.55,5.12,12.67,5.12Z"/>
  <path class="cls-1" d="M242.07,43.22c2.39-3.33,5.59-5.85,9.6-7.55,4.1-1.71,8.79-2.56,14.08-2.56v18.43c-2.22-.17-3.71-.26-4.48-.26-5.72,0-10.2,1.62-13.44,4.86-3.24,3.16-4.86,7.94-4.86,14.34v32.51h-19.97V34.14h19.07v9.09Z"/>
  <path class="cls-1" d="M277.62,34.14h19.97v68.86h-19.97V34.14Z"/>
  <path class="cls-1" d="M393.85,99.67c-1.96,1.45-4.39,2.56-7.3,3.33-2.82.68-5.76,1.02-8.83,1.02-8.28,0-14.63-2.09-19.07-6.27-4.44-4.18-6.66-10.33-6.66-18.43V18.9h19.97v16.77h17.02v15.36h-17.02v28.03c0,2.9.72,5.16,2.18,6.78,1.45,1.54,3.54,2.3,6.27,2.3,3.07,0,5.8-.85,8.19-2.56l5.25,14.08Z"/>
  <path class="cls-1" d="M472.89,34.14v68.86h-19.07v-7.94c-4.95,5.97-12.12,8.96-21.5,8.96-6.49,0-12.37-1.45-17.66-4.35-5.21-2.9-9.3-7.04-12.29-12.42-2.99-5.38-4.48-11.61-4.48-18.69s1.49-13.31,4.48-18.69,7.08-9.51,12.29-12.42c5.29-2.9,11.18-4.35,17.66-4.35,8.79,0,15.66,2.77,20.61,8.32v-7.3h19.97ZM435.77,87.64c5.04,0,9.22-1.71,12.54-5.12,3.33-3.5,4.99-8.15,4.99-13.95s-1.66-10.41-4.99-13.82c-3.33-3.5-7.51-5.25-12.54-5.25s-9.34,1.75-12.67,5.25c-3.33,3.41-4.99,8.02-4.99,13.82s1.66,10.45,4.99,13.95c3.33,3.41,7.55,5.12,12.67,5.12Z"/>
  <path class="cls-1" d="M562.41,34.14v57.34c0,12.63-3.28,22.02-9.86,28.16-6.57,6.14-16.17,9.22-28.8,9.22-6.66,0-12.97-.81-18.94-2.43-5.97-1.62-10.92-3.97-14.85-7.04l7.94-14.34c2.9,2.39,6.57,4.27,11.01,5.63,4.44,1.45,8.88,2.18,13.31,2.18,6.91,0,11.99-1.58,15.23-4.74,3.33-3.07,4.99-7.76,4.99-14.08v-2.94c-5.21,5.72-12.46,8.58-21.76,8.58-6.32,0-12.12-1.37-17.41-4.1-5.2-2.82-9.34-6.74-12.42-11.78-3.07-5.03-4.61-10.84-4.61-17.41s1.54-12.37,4.61-17.41c3.07-5.03,7.21-8.92,12.42-11.65,5.29-2.82,11.09-4.22,17.41-4.22,9.98,0,17.58,3.29,22.78,9.86v-8.83h18.94ZM524.66,83.29c5.29,0,9.6-1.54,12.93-4.61,3.41-3.16,5.12-7.25,5.12-12.29s-1.71-9.09-5.12-12.16c-3.33-3.16-7.64-4.74-12.93-4.74s-9.64,1.58-13.06,4.74c-3.41,3.07-5.12,7.13-5.12,12.16s1.71,9.13,5.12,12.29c3.41,3.07,7.77,4.61,13.06,4.61Z"/>
  <path class="cls-1" d="M326.78,77c7.18,0,13,5.82,13,13s-5.82,13-13,13-13-5.82-13-13,5.82-13,13-13ZM326.78,86c-2.21,0-4,1.79-4,4s1.79,4,4,4,4-1.79,4-4-1.79-4-4-4Z"/>
  <path class="cls-1" d="M287.78,0c7.18,0,13,5.82,13,13s-5.82,13-13,13-13-5.82-13-13,5.82-13,13-13ZM287.78,9c-2.21,0-4,1.79-4,4s1.79,4,4,4,4-1.79,4-4-1.79-4-4-4Z"/>
  <path class="cls-1" d="M331.28,8.5v72h-9V17.5h-28.5v-9h37.5Z"/>
</svg>